HIERARCHY
ROOT Hip
{
  OFFSET 0.0 0.0 0.0
  CHANNELS 6 Xposition Yposition Zposition Xrotation Yrotation Zrotation
  JOINT LowerSpine
  {
    OFFSET 0.0 0.061367 -0.03653
    CHANNELS 3 Xrotation Yrotation Zrotation
    JOINT MiddleSpine
    {
      OFFSET 0.0 0.056002 0.002633
      CHANNELS 3 Xrotation Yrotation Zrotation
      JOINT Chest
      {
        OFFSET 0.0 0.069296 -0.013882
        CHANNELS 3 Xrotation Yrotation Zrotation
        JOINT Neck
        {
          OFFSET 0.0 0.156156 -0.002923
          CHANNELS 3 Xrotation Yrotation Zrotation
          JOINT Head
          {
            OFFSET 0.0 0.088183 0.023986
            CHANNELS 3 Xrotation Yrotation Zrotation
            End Site
            {
              OFFSET 1e-06 0.123215 0.003678
            }
          }
        }
        JOINT LClavicle
        {
          OFFSET 0.014189 0.150698 0.046467
          CHANNELS 3 Xrotation Yrotation Zrotation
          JOINT LShoulder
          {
            OFFSET 0.082893 0.021616 -0.034976
            CHANNELS 3 Xrotation Yrotation Zrotation
            JOINT LForearm
            {
              OFFSET 0.195645 -0.000695 -0.001695
              CHANNELS 3 Xrotation Yrotation Zrotation
              JOINT LHand
              {
                OFFSET 0.163209 0.000474 -0.000977
                CHANNELS 3 Xrotation Yrotation Zrotation
                End Site
                {
                  OFFSET 0.0 0.006864 0.0
                }
              }
            }
          }
        }
        JOINT RClavicle
        {
          OFFSET -0.014189 0.150698 0.046467
          CHANNELS 3 Xrotation Yrotation Zrotation
          JOINT RShoulder
          {
            OFFSET -0.082908 0.021619 -0.034982
            CHANNELS 3 Xrotation Yrotation Zrotation
            JOINT RForearm
            {
              OFFSET -0.195645 -0.000695 -0.001695
              CHANNELS 3 Xrotation Yrotation Zrotation
              JOINT RHand
              {
                OFFSET -0.163209 0.000474 -0.000977
                CHANNELS 3 Xrotation Yrotation Zrotation
                End Site
                {
                  OFFSET 0.0 0.006864 0.0
                }
              }
            }
          }
        }
      }
    }
  }
  JOINT RThigh
  {
    OFFSET -0.072558 0.02774 -0.005953
    CHANNELS 3 Xrotation Yrotation Zrotation
    JOINT RShin
    {
      OFFSET -0.005253 -0.285537 0.0
      CHANNELS 3 Xrotation Yrotation Zrotation
      JOINT RFoot
      {
        OFFSET 0.0 -0.28038 0.0
        CHANNELS 3 Xrotation Yrotation Zrotation
        JOINT RToe
        {
          OFFSET 0.0 -0.030816 0.064441
          CHANNELS 3 Xrotation Yrotation Zrotation
          End Site
          {
            OFFSET 0.0 0.0 0.043231
          }
        }
      }
    }
  }
  JOINT LThigh
  {
    OFFSET 0.072557 0.027741 -0.005953
    CHANNELS 3 Xrotation Yrotation Zrotation
    JOINT LShin
    {
      OFFSET 0.005253 -0.285539 0.0
      CHANNELS 3 Xrotation Yrotation Zrotation
      JOINT LFoot
      {
        OFFSET 0.0 -0.28038 0.0
        CHANNELS 3 Xrotation Yrotation Zrotation
        JOINT LToe
        {
          OFFSET 0.0 -0.030816 0.064441
          CHANNELS 3 Xrotation Yrotation Zrotation
          End Site
          {
            OFFSET 0.0 0.0 0.043231
          }
        }
      }
    }
  }
}
MOTION
Frames: 10
Frame Time: 0.03333333333333333
0.142338 0.575416 1.664231 9.240213 -41.469109 1.214779 -1.09777 -0.738014 -0.018493 -1.696231 -0.992952 1.442578 -7.525087 -6.727551 2.771752 -1.106914 0.352091 -0.173238 0.041125 -0.274676 -0.026003 1.386645 0.089095 -17.034801 13.313044 -35.829376 -64.71067 9.500628 -22.152111 -0.346637 0.064806 0.127059 -0.060007 0.399171 -0.443158 14.164536 21.530474 26.367508 65.980125 7.147007 16.628332 2.504836 -0.170888 -0.093936 -0.02622 -4.734322 -13.592466 11.126074 4.668286 -7.856544 -0.544481 -0.590371 2.236837 0.202835 -0.059521 0.228525 0.1364 -8.472703 -2.686332 2.314444 23.165197 0.070444 0.632118 -1.102995 0.58956 0.831054 -0.099052 -0.081572 -0.043423 
0.13113 0.57055 1.667572 9.001603 -43.068275 1.18096 -1.009153 -0.66714 0.009767 -1.588466 -0.909893 1.391314 -7.300314 -6.162183 2.575908 -1.066849 0.34236 -0.121999 0.043877 -0.250677 -0.023484 1.263378 0.016713 -16.949654 14.562949 -36.394768 -64.59227 10.946673 -19.967571 -0.586972 0.060444 0.117412 -0.051715 0.452995 -0.266015 14.106438 20.811552 29.50238 64.845436 7.138117 17.100628 2.437029 -0.156694 -0.107907 -0.02347 -2.612218 -13.018214 10.684825 3.505637 -7.613733 -0.308328 -1.172371 2.116489 0.21489 -0.064567 0.193285 0.135159 -11.141965 -3.500355 2.741544 26.821756 -0.498645 0.797113 -1.036155 0.604213 0.768234 -0.047176 -0.067499 -0.042289 
0.119333 0.572804 1.677916 9.106438 -44.358196 2.221822 -1.006535 -0.610794 0.030925 -1.427756 -0.741548 1.320606 -7.55017 -5.539828 2.213182 -1.10397 0.333018 -0.063849 0.043742 -0.202078 -0.015082 1.134309 0.027917 -16.993868 16.034685 -36.624031 -64.315422 11.654067 -18.135815 -1.007013 0.051967 0.100341 -0.039736 0.498746 -0.102393 14.128038 20.3092 31.740126 63.864803 6.688797 17.362925 2.57328 -0.115395 -0.11401 -0.014657 -1.665641 -11.921331 9.773908 2.41715 -7.053301 -0.17465 -1.698722 1.898242 0.194275 -0.049296 0.155773 0.121119 -13.819411 -4.048875 2.076422 27.977524 -0.996336 0.857325 -1.080268 0.579739 0.671909 -0.018278 -0.047398 -0.031949 
0.106943 0.572991 1.686175 9.008305 -45.582748 3.225839 -1.04608 -0.562967 0.047317 -1.302077 -0.565434 1.244363 -7.876142 -5.03386 1.839937 -1.143815 0.349678 -0.012034 0.046385 -0.183557 -0.004342 1.048651 0.037458 -17.062218 16.854715 -36.543941 -64.442787 11.280623 -17.177654 -1.304948 0.053823 0.101849 -0.041737 0.572808 -0.078385 14.238848 19.845051 31.732721 63.413567 6.185485 17.8939 2.502768 -0.088928 -0.129746 -0.012854 -1.437873 -9.821137 9.08052 2.586221 -6.250398 -0.258117 -1.99166 1.739205 0.140191 -0.056056 0.149082 0.120556 -14.558118 -3.977374 0.718249 25.427656 -1.313431 0.919436 -1.270081 0.630609 0.664675 0.011542 -0.052212 -0.036588 
0.097847 0.572068 1.691418 8.234572 -47.663799 3.677558 -1.143741 -0.535697 0.09212 -1.293873 -0.462526 1.187738 -8.046711 -4.287544 1.675538 -1.144847 0.367268 -0.011741 0.044512 -0.177274 0.013534 0.897083 -0.02123 -17.250965 17.401093 -35.076256 -65.53006 9.619164 -16.847372 -1.529579 0.056198 0.104692 -0.050239 0.621605 -0.018225 14.213775 19.480482 30.036232 63.31937 5.494572 19.333969 2.190282 -0.087066 -0.133943 -0.01649 -0.957289 -7.524459 8.529821 2.809985 -5.316965 -0.346533 -1.925626 1.66191 0.119126 -0.099017 0.163139 0.118611 -14.747548 -3.490026 -1.238822 20.924429 -1.788423 1.308696 -1.511667 0.738617 0.716809 0.030954 -0.071817 -0.052612 
0.089365 0.570312 1.691684 8.675852 -55.100681 5.690363 -1.22775 -0.514577 0.111795 -1.352824 -0.387276 1.161467 -8.135667 -3.14499 1.934598 -1.17012 0.423492 -0.052395 0.042875 -0.168183 0.031907 0.770181 -0.211355 -17.347784 17.947981 -32.986015 -66.679413 8.403607 -17.070803 -1.961592 0.068689 0.128459 -0.07467 0.707515 -0.237941 14.025677 18.80751 28.527571 63.928905 4.253915 19.777256 1.768553 -0.085721 -0.150744 -0.021069 0.188199 -5.742658 8.065177 2.635735 -4.548009 -0.197067 -2.242807 1.646264 0.099028 -0.147891 0.223157 0.117868 -16.732609 -3.312582 -2.958394 16.015373 -2.485903 2.03125 -1.417353 0.674042 0.734057 0.074194 -0.102991 -0.07121 
0.077633 0.567938 1.689932 11.50697 -63.840343 9.964296 -1.250865 -0.529167 0.134948 -1.472933 -0.339866 1.177244 -7.860063 -2.241835 2.370348 -1.165694 0.483292 -0.102479 0.044298 -0.177913 0.043402 0.7038 -0.421897 -17.328548 18.276115 -31.290556 -67.744637 7.678542 -17.478989 -2.142507 0.084271 0.163851 -0.099219 0.764493 -0.510255 13.916961 17.621902 27.454918 64.451958 2.839258 19.747248 1.351138 -0.093976 -0.169892 -0.026373 1.081653 -4.970815 7.838205 2.758261 -4.322787 -0.037711 -2.495002 1.639961 0.034499 -0.187862 0.283832 0.120405 -19.08906 -3.14344 -3.824575 13.000924 -2.914305 2.623489 -1.159717 0.634798 0.755834 0.112604 -0.144207 -0.092384 
0.057937 0.566095 1.687829 20.681055 -71.135895 20.44042 -1.321887 -0.521464 0.200567 -1.576364 -0.280917 1.145202 -7.343115 -1.462996 2.843929 -1.150191 0.511821 -0.185928 0.042279 -0.179029 0.063144 0.715807 -0.408171 -17.458508 18.99176 -29.360056 -68.447395 7.233147 -18.008936 -2.155223 0.085102 0.166148 -0.097081 0.795361 -0.835009 14.200042 16.731977 26.953989 63.747692 2.08737 20.271149 1.334682 -0.096276 -0.163887 -0.023523 1.367766 -4.671017 7.548622 3.424473 -4.468743 0.119178 -2.551554 1.57017 -0.030576 -0.221065 0.290495 0.116615 -20.679182 -2.718206 -4.074599 10.978806 -2.843853 2.858009 -0.811243 0.625008 0.733525 0.117578 -0.153815 -0.098146 
0.038285 0.564048 1.686262 31.655298 -75.292053 31.960682 -1.385325 -0.50151 0.277035 -1.609565 -0.234663 1.11836 -6.694814 -0.826546 3.072193 -1.135584 0.522588 -0.253142 0.042563 -0.185536 0.07938 0.730988 -0.361059 -17.526388 19.113928 -28.179893 -68.990143 6.946422 -18.096916 -1.921789 0.084963 0.165297 -0.09144 0.791784 -1.131429 14.604391 16.104464 26.736242 62.998344 1.60284 20.835129 1.290927 -0.107766 -0.158782 -0.022823 1.827949 -4.671993 7.406897 4.345525 -4.698882 0.214324 -2.566843 1.522339 -0.077424 -0.260745 0.288169 0.119802 -21.34119 -2.657501 -4.156106 9.655378 -2.87618 2.977965 -0.568373 0.619825 0.718373 0.125605 -0.158577 -0.09779 
0.018798 0.561852 1.685892 44.780807 -77.967171 45.21006 -1.443674 -0.499788 0.337074 -1.615218 -0.209668 1.090326 -6.090307 -0.411718 3.196913 -1.139366 0.522205 -0.307351 0.041807 -0.193191 0.0916 0.754765 -0.305724 -17.58885 18.750715 -27.729216 -69.366119 6.861964 -17.724062 -1.647279 0.084347 0.163594 -0.08697 0.78463 -1.353584 14.965778 15.585093 26.783407 62.550484 1.239465 20.705297 1.232596 -0.125265 -0.155362 -0.023421 2.528858 -4.93997 7.388738 5.072973 -4.939194 0.279563 -2.588673 1.497557 -0.112904 -0.289603 0.279968 0.122583 -21.141268 -2.763994 -4.12794 8.532717 -3.032775 3.067075 -0.373234 0.590821 0.69891 0.132454 -0.162247 -0.097116 
